<svg id="Capa_1" enable-background="new 0 0 511.979 511.979" height="512" viewBox="0 0 511.979 511.979" width="512" xmlns="http://www.w3.org/2000/svg"><g><path d="m466.979 323.979-38.987 67.515c-3.934 6.813-6.013 14.587-6.013 22.48 0 24.813 20.187 45 45 45s45-20.187 45-45c0-7.896-2.079-15.671-6.014-22.482zm0 104.996c-8.271 0-15-6.729-15-15 0-2.673.671-5.19 1.992-7.479l13.008-22.525 13.008 22.525c1.322 2.289 1.992 4.805 1.992 7.479 0 8.271-6.729 15-15 15z"/><path d="m236.898 32.761-26.684 26.684c-4.58-28.57-29.394-50.471-59.235-50.471-33.084 0-60 26.916-60 60v109.706l-77.82 77.82c-17.545 17.545-17.545 46.094 0 63.639l169.706 169.706c17.545 17.544 46.093 17.546 63.64 0l168.201-168.202 83.306-27.769zm-115.919 36.214c0-16.542 13.458-30 30-30s30 13.458 30 30v19.705l-60 60zm277.521 226.447-173.209 173.21c-5.849 5.849-15.365 5.849-21.214 0l-169.705-169.706c-5.849-5.849-5.849-15.365 0-21.213l146.607-146.607v147.868h30v-177.867l25.919-25.919 205.576 205.577z"/></g></svg>