<svg id="Capa_1" enable-background="new 0 0 511.9 511.9" height="512" viewBox="0 0 511.9 511.9" width="512" xmlns="http://www.w3.org/2000/svg"><g><path d="m444.223 170.831c16.61-10.354 28.48-26.221 33.411-44.63l34.259-126.197-126.148 34.246c-12.655 3.389-24.265 10.1-33.573 19.409-16.557 16.557-24.38 39.622-21.321 62.864-4.921 2.389-57.31 13.223-98.413 64.676l-232.438 290.496 40.201 40.201 290.487-232.431c51.201-40.904 62.51-93.923 64.669-98.371 17.458 2.285 34.812-1.504 48.866-10.263zm12.424-81.834c-7.218-3.598-13.859-8.361-19.623-14.125-5.763-5.764-10.526-12.404-14.124-19.623l46.322-12.575zm-144.692 167.037-269.529 215.661-2.225-2.225 215.669-269.537c35.303-44.193 79.717-52.616 84.801-55.061 5.82 9.808 13.892 18.332 23.796 24.856.832.548 1.676 1.073 2.528 1.584-2.343 4.874-10.928 49.482-55.04 84.722zm69.017-111.359c-25.191-16.594-27.176-50.213-7.587-69.804 5.588-5.588 12.545-9.613 20.168-11.655 5.241 12.207 12.782 23.391 22.259 32.868 9.477 9.478 20.662 17.02 32.869 22.26l-.012.046c-2.1 7.841-7.329 18.887-20.313 26.98-14.017 8.737-33.502 8.45-47.384-.695z"/><path d="m466.9 196-38.986 67.514c-3.935 6.812-6.014 14.586-6.014 22.482 0 24.813 20.187 45 45 45s45-20.187 45-45c0-7.896-2.079-15.67-6.014-22.482zm0 104.996c-8.271 0-15-6.729-15-15 0-2.673.67-5.19 1.992-7.48l13.008-22.524 13.008 22.524c1.322 2.29 1.992 4.807 1.992 7.48 0 8.271-6.728 15-15 15z"/></g></svg>